<svg width="305" height="48" viewBox="0 0 305 48" fill="none" xmlns="http://www.w3.org/2000/svg">
<path d="M83.578 12.1265C83.578 7.78491 83.6524 3.74275 83.8757 0L72.4888 2.17079V3.21876L73.6052 3.36847C74.4238 3.44333 74.9448 3.74274 75.2425 4.19187C75.5402 4.71586 75.7635 5.46441 75.9123 6.58723C76.0612 8.75802 76.21 13.6984 76.1356 21.4834C76.1356 29.1934 76.0612 34.059 75.9123 35.9304C80.0056 36.8286 83.2059 37.2029 85.5874 37.2029C90.0529 37.2029 93.5508 35.9304 96.0812 33.3104C98.6116 30.7654 99.9512 27.1723 99.9512 22.7559C99.9512 19.2377 98.9837 16.3184 97.0487 13.9979C95.1137 11.6774 92.6577 10.5545 89.7552 10.5545C87.8201 10.5545 85.8107 11.0785 83.578 12.1265ZM83.8013 35.1818C83.6524 32.7864 83.5036 25.6004 83.5036 13.8482C84.1734 13.6236 85.0665 13.4739 86.1828 13.4739C87.969 13.4739 89.383 14.3721 90.425 16.2435C91.4669 18.1149 91.9879 20.3605 91.9879 23.205C91.9879 26.7232 91.3925 29.5677 90.2017 31.963C89.0109 34.2835 87.5224 35.4812 85.6618 35.4812C85.0665 35.3315 84.4711 35.2567 83.8013 35.1818ZM29.7695 0.748549H0V2.24565L1.5629 2.39536C2.75368 2.61992 3.57234 3.06905 4.09331 3.74275C4.61428 4.49129 4.91197 5.68897 4.9864 7.33578C5.58179 15.4201 5.58179 22.9805 4.9864 29.942C4.83755 31.5888 4.53985 32.7864 4.09331 33.535C3.57234 34.2835 2.75368 34.7327 1.5629 34.8824L0 35.1069V36.604H19.2014V35.1069L17.1919 34.9572C16.7016 34.916 16.2246 34.7753 15.7897 34.5438C15.3549 34.3122 14.9711 33.9945 14.6615 33.6099C14.1405 32.8613 13.8428 31.6636 13.7684 30.0168C13.5451 27.0226 13.3963 23.5793 13.3963 19.7617L17.4152 19.8365C19.5735 19.9114 21.0619 21.5582 21.8062 24.8518H23.2947V12.6505H21.8062C21.0619 15.8692 19.6479 17.516 17.4152 17.5909L13.3963 17.6658C13.3963 10.9288 13.5451 6.1381 13.7684 3.21876H19.6479C23.8156 3.21876 26.6437 5.91354 28.2811 11.3031L30.0672 10.7791L29.7695 0.748549ZM26.2716 23.8039C26.2716 27.6963 27.388 30.9151 29.5463 33.4601C31.7046 36.0052 34.9048 37.2029 38.9237 37.2029C42.9426 37.2029 46.2172 35.9304 48.5988 33.3104C50.9803 30.7654 52.0967 27.5466 52.0967 23.6541C52.0967 19.7617 50.9803 16.5429 48.822 13.9979C46.6638 11.4528 43.4635 10.2551 39.4446 10.2551C35.4258 10.2551 32.1511 11.5277 29.7695 14.1476C27.388 16.6926 26.2716 19.9114 26.2716 23.8039ZM42.8681 15.2704C43.7612 17.4412 44.1333 20.2857 44.1333 23.729C44.1333 31.6636 42.496 35.5561 39.2958 35.5561C37.6585 35.5561 36.3933 34.4333 35.5002 32.1876C34.6071 29.942 34.235 27.0975 34.235 23.729C34.235 15.8692 35.8723 11.9768 39.0725 11.9768C40.7098 11.9019 41.975 13.0248 42.8681 15.2704ZM105.756 33.4601C108.212 35.9304 111.338 37.2029 115.059 37.2029C117.366 37.2029 119.376 36.7538 121.162 35.7806C122.948 34.8824 124.362 33.7596 125.33 32.4122L124.586 31.5139C122.948 32.7864 121.088 33.3853 118.929 33.3853C115.952 33.3853 113.645 32.4122 112.082 30.3911C110.445 28.37 109.701 25.8249 109.85 22.5313H125.776C125.776 18.9383 124.883 16.0189 123.023 13.6984C121.162 11.4528 118.557 10.33 115.208 10.33C111.04 10.33 107.84 11.6774 105.533 14.2973C103.226 16.9172 102.11 20.136 102.11 23.9536C102.11 27.846 103.3 30.9899 105.756 33.4601ZM111.264 14.6716C112.082 12.875 113.124 11.9768 114.538 11.9768C116.771 11.9768 117.887 14.8213 117.887 20.5851L109.998 20.7348C110.073 18.4892 110.445 16.4681 111.264 14.6716ZM145.796 11.6774C143.787 10.7791 141.256 10.2551 138.205 10.2551C135.079 10.2551 132.623 11.0785 130.763 12.6505C128.902 14.2224 127.935 16.1687 127.935 18.4892C127.935 20.5102 128.53 22.0822 129.646 23.205C130.763 24.3278 132.549 25.301 134.856 26.1244C136.94 26.8729 138.428 27.6215 139.173 28.2952C139.917 29.0437 140.363 29.8671 140.363 30.9899C140.363 32.0379 139.991 33.011 139.173 33.7596C138.428 34.583 137.386 34.9572 136.047 34.9572C132.772 34.9572 130.316 32.5619 128.604 27.7712L127.339 28.1454L127.637 35.6309C130.316 36.6789 133.293 37.2029 136.568 37.2029C139.991 37.2029 142.596 36.4543 144.531 34.8824C146.466 33.3853 147.434 31.2145 147.434 28.5197C147.434 26.7232 146.987 25.2261 146.02 24.1033C145.052 22.9805 143.489 22.0073 141.256 21.1091C138.8 20.2108 137.089 19.3874 136.196 18.6389C135.303 17.8903 134.856 16.9921 134.856 15.8692C134.856 14.7464 135.154 13.8482 135.824 13.0996C136.493 12.3511 137.312 12.0516 138.354 12.0516C141.331 12.0516 143.489 14.2224 144.829 18.4892L146.094 18.1149L145.796 11.6774ZM74.2006 11.0037C73.1586 10.4797 72.0423 10.2551 70.7771 10.2551C69.5119 10.2551 68.2467 10.7791 66.8326 11.8271C65.4186 12.875 64.3766 14.2973 63.558 16.2435L63.6324 10.2551L52.32 12.5008V13.5487L53.4363 13.6236C54.8504 13.7733 55.669 14.8961 55.8179 16.9172C56.2644 21.5582 56.2644 26.4986 55.8179 31.7385C55.669 33.7596 54.8504 34.8075 53.4363 35.0321L52.32 35.1818V36.604H68.0978V35.1818L66.0884 35.0321C64.6743 34.8824 63.8557 33.7596 63.7068 31.7385C63.2603 27.3969 63.1858 22.7559 63.558 17.9652C64.0045 17.2166 64.972 16.7675 66.4605 16.6178C67.949 16.4681 69.6607 16.9172 71.4469 17.9652L74.2006 11.0037Z" fill="black"/>
<path d="M171.133 30.7271C171.133 30.3412 171.188 30.0014 171.298 29.7074H172.566L177.003 24.6368L172.841 19.5662H171.574C171.445 19.309 171.381 18.9875 171.381 18.6017C171.381 18.1975 171.445 17.8576 171.574 17.582H177.444C177.572 17.8392 177.636 18.1607 177.636 18.5466C177.636 18.914 177.572 19.2263 177.444 19.4835H175.818L178.629 22.9833L181.55 19.4835H180.006C179.951 19.3365 179.905 19.1896 179.869 19.0426C179.832 18.8772 179.813 18.7119 179.813 18.5466C179.813 18.3628 179.832 18.1883 179.869 18.023C179.905 17.8576 179.951 17.7106 180.006 17.582H185.325C185.454 17.8576 185.518 18.1975 185.518 18.6017C185.518 18.9875 185.454 19.309 185.325 19.5662H184.085L179.924 24.3888L184.278 29.7074H185.573C185.628 29.8544 185.674 30.0106 185.711 30.1759C185.748 30.3412 185.766 30.5158 185.766 30.6995C185.766 31.0302 185.702 31.3609 185.573 31.6916H179.648C179.538 31.416 179.483 31.1037 179.483 30.7546C179.483 30.4055 179.538 30.0932 179.648 29.8176H181.246L178.27 26.0698L175.156 29.8176H176.727C176.782 29.9462 176.828 30.0932 176.865 30.2586C176.902 30.4239 176.92 30.5893 176.92 30.7546C176.92 30.92 176.902 31.0853 176.865 31.2506C176.828 31.3976 176.782 31.5446 176.727 31.6916H171.298C171.188 31.416 171.133 31.0945 171.133 30.7271Z" fill="#702872"/>
<path d="M229.874 12.8403H221.182L212.491 25.3066L216.187 3H208.794L203 37.9657H210.393L212.471 25.4255L220.383 37.9657H229.274L220.884 25.2272L229.874 12.8403Z" fill="#531A56"/>
<path d="M273.03 12.3398C269.77 12.3398 267.314 13.4967 265.235 15.5242L265.125 15.5047L264.838 12.7889H258.145V47.9549H265.437V36.143L265.63 36.1035C267.491 37.612 269.945 38.4642 272.73 38.4642C279.574 38.4642 284.768 33.3692 284.768 25.2771C284.768 17.1851 279.823 12.3398 273.03 12.3398ZM271.431 31.9206C267.785 31.9206 265.437 29.3731 265.437 25.3771C265.437 21.381 267.785 18.8834 271.431 18.8834C275.078 18.8834 277.426 21.4309 277.426 25.3771C277.426 29.3232 275.078 31.9206 271.431 31.9206Z" fill="#531A56"/>
<path d="M241.863 12.3398C234.221 12.3398 228.926 17.8345 228.926 25.3771C228.926 32.9197 234.32 38.4642 241.963 38.4642C248.407 38.4642 252.802 34.568 254.101 30.1723H246.858C245.859 31.6209 244.261 32.2703 242.313 32.2703C239.119 32.2703 236.842 30.5365 236.089 27.6248H254.601C255.55 19.1831 250.405 12.3398 241.863 12.3398ZM241.763 18.5338C244.417 18.5338 246.381 20.0133 247.201 22.6297H236.226C237.052 20.0797 239.078 18.5338 241.763 18.5338Z" fill="#531A56"/>
<path d="M298.076 19.8354H303.9L304.999 12.8423H299.244L300.554 5H293.161L291.859 12.8423H287.766L286.617 19.8354H290.698L288.915 30.5749C288.116 35.5201 289.914 37.9677 295.708 37.9677H301.053L302.152 30.9745H297.956C296.657 30.9745 296.308 30.525 296.507 29.2262L298.076 19.8354Z" fill="#531A56"/>
</svg>
