<svg width="26" height="22" viewBox="0 0 26 22" fill="none" xmlns="http://www.w3.org/2000/svg">
  <path d="M25.36 0.215918L24.72 4.77592C23.44 4.66925 22.4 4.88259 21.6 5.41592C20.8 5.92259 20.24 6.66925 19.92 7.65592C19.6267 8.61592 19.5733 9.73592 19.76 11.0159H25.36V21.8959H14.48V11.0159C14.48 7.17592 15.3733 4.26925 17.16 2.29592C18.9467 0.295919 21.68 -0.397415 25.36 0.215918ZM10.88 0.215918L10.24 4.77592C8.96 4.66925 7.92 4.88259 7.12 5.41592C6.32 5.92259 5.76 6.66925 5.44 7.65592C5.14667 8.61592 5.09333 9.73592 5.28 11.0159H10.88V21.8959H0V11.0159C0 7.17592 0.893333 4.26925 2.68 2.29592C4.46667 0.295919 7.2 -0.397415 10.88 0.215918Z" fill="#702872" />
</svg>